
<svg xmlns="http://www.w3.org/2000/svg" viewBox="0 0 512 512">
  <defs>
    <linearGradient id="bg" x1="0%" y1="0%" x2="0%" y2="100%">
      <stop offset="0%" style="stop-color:#fff1f2;stop-opacity:1" />
      <stop offset="100%" style="stop-color:#fecdd3;stop-opacity:1" />
    </linearGradient>
    <linearGradient id="heart" x1="0%" y1="0%" x2="100%" y2="100%">
      <stop offset="0%" style="stop-color:#fb7185;stop-opacity:1" />
      <stop offset="100%" style="stop-color:#e11d48;stop-opacity:1" />
    </linearGradient>
    <filter id="shadow" x="-20%" y="-20%" width="140%" height="140%">
      <feDropShadow dx="0" dy="8" stdDeviation="12" flood-color="#f43f5e" flood-opacity="0.3"/>
    </filter>
  </defs>
  
  <!-- Background Squircle (Perfect for Mobile Icons) -->
  <rect x="0" y="0" width="512" height="512" rx="128" ry="128" fill="url(#bg)"/>
  
  <!-- The Cute Heart -->
  <g filter="url(#shadow)" transform="translate(256 266) scale(0.65) translate(-256 -256)">
    <path fill="url(#heart)" d="M47.6 300.4L228.3 469.1c7.5 7 17.4 10.9 27.7 10.9s20.2-3.9 27.7-10.9L464.4 300.4c30.4-28.3 47.6-68 47.6-109.5v-5.8c0-69.9-50.5-129.5-119.4-141C347 36.5 300.6 51.4 268 84l-12 12-12-12C211.4 51.4 165 36.5 119.3 44.1 50.5 55.6 0 115.2 0 185.1v5.8c0 41.5 17.2 81.2 47.6 109.5z"/>
    <!-- Shine Highlight -->
    <path fill="white" fill-opacity="0.25" d="M125 64c-35 5-65 35-75 70 5-25 30-55 70-65 25-5 55 5 70 20-10-15-35-25-65-25z"/>
  </g>
</svg>
